<svg xmlns="http://www.w3.org/2000/svg" xml:space="preserve" width="56" height="56" style="shape-rendering:geometricPrecision;text-rendering:geometricPrecision;image-rendering:optimizeQuality;fill-rule:evenodd;clip-rule:evenodd" viewBox="0 0 6.827 6.827"><path d="m3.003 1.636.332-.093c.046-.013.114.089.153.227l.42 1.504c.038.138.032.26-.014.273l-.332.093c-.046.013-.115-.09-.153-.227l-.42-1.504c-.038-.138-.032-.26.014-.273z" style="fill:#dbdbdb;fill-rule:nonzero"/><path d="m4.025 3.143.723 2.332c.05.163-.038.301-.18.391a.692.692 0 0 1-.38.107c-.169-.003-.317-.074-.36-.24l-.597-2.36a.089.089 0 0 1 .063-.113l.62-.173a.09.09 0 0 1 .111.056z" style="fill:#333;fill-rule:nonzero"/><path d="M4.64 5.813a.52.52 0 0 1-.03.024L3.85 3.105l.033-.01.758 2.718zm-.5.157a.526.526 0 0 1-.037-.005l-.759-2.72.033-.008.763 2.733z" style="fill:#232323;fill-rule:nonzero"/><circle transform="rotate(-15.582 22.723 -12.883) scale(1.02668)" r=".107" style="fill:#1a191a"/><path transform="matrix(.27516 -.07674 .30442 1.09158 3.233 1.944)" style="fill:#c8c8c8" d="M0 0h.213v1.067H0z"/><path d="m1.874 1.324.367-.102a.079.079 0 0 1 .096.05.127.127 0 0 0 .15.071.126.126 0 0 0 .092-.142l.077-.013-.078.013a.079.079 0 0 1 .058-.09L3.51.868a.079.079 0 0 1 .097.055l.007.026c.352-.11 1.1-.29 1.392.557a.079.079 0 0 1-.148.056c-.094-.186-.28-.222-.483-.193-.2.029-.418.12-.588.2l.017.06a.079.079 0 0 1-.055.097l-.874.244a.079.079 0 0 1-.096-.05.127.127 0 0 0-.15-.072.126.126 0 0 0-.092.143l-.078.013.078-.013a.079.079 0 0 1-.057.089l-.366.102a.079.079 0 0 1-.098-.055l-.196-.706a.079.079 0 0 1 .054-.097z" style="fill:#c5c5c5;fill-rule:nonzero"/><path d="M4.956 1.38c.018.04.034.082.05.126a.079.079 0 0 1-.148.056c-.094-.186-.28-.222-.483-.193-.2.029-.418.12-.588.2l.017.06a.079.079 0 0 1-.055.097l-.874.244a.079.079 0 0 1-.096-.05.127.127 0 0 0-.15-.072.126.126 0 0 0-.092.143l-.078.013.078-.013a.079.079 0 0 1-.057.089l-.342.095-.131-.47a.079.079 0 0 1 .054-.098l.367-.102a.079.079 0 0 1 .096.05.127.127 0 0 0 .15.072.126.126 0 0 0 .092-.143l.077-.013-.078.013a.079.079 0 0 1 .058-.09l.874-.243a.079.079 0 0 1 .097.055l.007.026c.278-.086.803-.217 1.155.149z" style="fill:#bababb;fill-rule:nonzero"/><path d="m1.874 1.324.367-.102a.079.079 0 0 1 .096.05.127.127 0 0 0 .15.071l.141.505a.126.126 0 0 0-.091.143l-.078.013.078-.013a.079.079 0 0 1-.057.089l-.366.102a.079.079 0 0 1-.098-.055l-.196-.706a.079.079 0 0 1 .054-.097z" style="fill:#8b8c8c;fill-rule:nonzero"/><path style="fill:none" d="M0 0h6.827v6.827H0z"/></svg>